<svg width="1200" height="820" viewBox="0 0 1200 820" fill="none" xmlns="http://www.w3.org/2000/svg">
  <defs>
    <linearGradient id="bg" x1="0" y1="0" x2="1200" y2="820" gradientUnits="userSpaceOnUse">
      <stop stop-color="#E8F1FF"/>
      <stop offset="0.55" stop-color="#FFFFFF"/>
      <stop offset="1" stop-color="#E8FBF6"/>
    </linearGradient>
    <linearGradient id="accent" x1="130" y1="120" x2="1020" y2="700" gradientUnits="userSpaceOnUse">
      <stop stop-color="#2864FF"/>
      <stop offset="1" stop-color="#0F9F8F"/>
    </linearGradient>
  </defs>

  <rect width="1200" height="820" rx="44" fill="url(#bg)"/>

  <g opacity="0.9">
    <rect x="120" y="86" width="310" height="310" rx="30" fill="#0B1220"/>
    <rect x="162" y="128" width="226" height="226" rx="22" fill="white"/>
    <rect x="188" y="154" width="86" height="86" rx="12" fill="#0B1220"/>
    <rect x="276" y="154" width="86" height="86" rx="12" fill="#2864FF"/>
    <rect x="188" y="242" width="86" height="86" rx="12" fill="#2864FF"/>
    <rect x="276" y="242" width="86" height="86" rx="12" fill="#0B1220"/>
  </g>

  <g>
    <rect x="470" y="142" width="610" height="530" rx="30" fill="white"/>
    <rect x="510" y="192" width="280" height="18" rx="9" fill="#D7E3FF"/>
    <rect x="510" y="228" width="420" height="18" rx="9" fill="#E6ECF7"/>
    <rect x="510" y="264" width="360" height="18" rx="9" fill="#E6ECF7"/>

    <rect x="510" y="326" width="170" height="112" rx="18" fill="#F6FAFF" stroke="#D4E1FF"/>
    <rect x="530" y="346" width="58" height="58" rx="10" fill="#2864FF"/>
    <rect x="592" y="346" width="58" height="58" rx="10" fill="#0B1220"/>

    <rect x="710" y="326" width="170" height="112" rx="18" fill="#F6FFFC" stroke="#D0F4EB"/>
    <rect x="730" y="346" width="58" height="58" rx="10" fill="#0F9F8F"/>
    <rect x="792" y="346" width="58" height="58" rx="10" fill="#0B1220"/>

    <rect x="910" y="326" width="130" height="112" rx="18" fill="#FFF6ED" stroke="#FFDCC2"/>
    <rect x="932" y="348" width="86" height="22" rx="11" fill="#FF7A1A"/>
    <rect x="932" y="380" width="70" height="14" rx="7" fill="#F4B88D"/>

    <rect x="510" y="476" width="530" height="22" rx="11" fill="url(#accent)"/>
    <rect x="510" y="518" width="380" height="14" rx="7" fill="#E6ECF7"/>
    <rect x="510" y="546" width="300" height="14" rx="7" fill="#E6ECF7"/>
    <rect x="510" y="574" width="420" height="14" rx="7" fill="#E6ECF7"/>
  </g>

  <circle cx="1095" cy="84" r="54" fill="#2864FF" fill-opacity="0.16"/>
  <circle cx="1036" cy="744" r="66" fill="#0F9F8F" fill-opacity="0.14"/>
</svg>
